<svg width="141" height="141" viewBox="0 0 141 141" fill="none" xmlns="http://www.w3.org/2000/svg">
<path d="M82.2528 47.992C82.2528 20.6512 75.1872 6.98081 61.056 6.98081C51.5328 6.98081 43.6224 10.744 37.3248 18.2704C34.56 21.496 31.872 23.1088 29.2608 23.1088C27.7248 23.1088 27.3408 22.4176 28.1088 21.0352C37.4784 7.5184 49.6896 0.760003 64.7424 0.760003C79.9488 0.760003 89.9328 9.1312 94.6944 25.8736C96.5376 32.4784 97.4592 40.4656 97.4592 49.8352C97.4592 59.2048 95.3856 70.4944 91.2384 83.704C84.48 105.669 74.4192 121.72 61.056 131.858C53.5296 137.694 45.696 140.613 37.5552 140.613C29.568 140.613 22.7328 138.693 17.0496 134.853C11.52 130.859 7.6032 125.714 5.2992 119.416C2.3808 111.275 0.9216 103.365 0.9216 95.6848C0.9216 87.8512 1.8432 80.3248 3.6864 73.1056C5.5296 65.8864 8.064 58.8208 11.2896 51.9088C14.5152 44.8432 18.7392 38.6992 23.9616 33.4768C29.184 28.2544 34.7904 24.7984 40.7808 23.1088C41.7024 22.8016 42.3936 23.032 42.8544 23.8C43.4688 24.568 43.6992 25.4896 43.5456 26.5648C43.392 27.64 43.008 28.2544 42.3936 28.408C37.4784 29.7904 32.9472 34.3984 28.8 42.232C20.6592 56.9776 16.5888 76.408 16.5888 100.523C16.5888 110.2 18.3552 118.494 21.888 125.406C25.4208 132.165 30.4896 135.544 37.0944 135.544C50.1504 135.544 61.2096 124.869 70.272 103.518C78.2592 84.9328 82.2528 66.424 82.2528 47.992Z" fill="#32D1F9"/>
<path d="M140.734 73.9062V74.5625C140.734 74.75 140.703 74.9375 140.641 75.125C139.953 76.4375 139.109 77.4375 138.109 78.125C137.109 78.8125 135.859 79.1562 134.359 79.1562C133.359 79.1562 132.609 79.0625 132.109 78.875C131.672 78.6875 131.078 78.3438 130.328 77.8438C129.203 77.9688 127.922 78.0938 126.484 78.2188C125.047 78.2812 123.609 78.4375 122.172 78.6875C120.734 78.875 119.359 79.1562 118.047 79.5312C116.797 79.9062 115.734 80.4688 114.859 81.2188C114.297 85.5312 113.984 89.8438 113.922 94.1562C113.922 98.4062 113.859 102.688 113.734 107C114.234 108.312 114.578 109.75 114.766 111.312C114.953 112.938 115.078 114.406 115.141 115.719C115.578 116.469 115.922 117.219 116.172 117.969C116.422 118.781 116.672 119.594 116.922 120.406C117.172 121.219 117.453 122 117.766 122.75C118.141 123.5 118.609 124.188 119.172 124.812C119.672 124.812 120.109 124.844 120.484 124.906C120.922 125.031 121.359 125.156 121.797 125.281V125.844C121.797 126.781 122.078 127.469 122.641 127.906C123.203 128.344 123.828 128.812 124.516 129.312C124.703 130 124.797 130.656 124.797 131.281C124.797 132.344 124.547 133.344 124.047 134.281C123.609 135.219 122.859 135.875 121.797 136.25C121.172 136.25 120.578 136.156 120.016 135.969C119.453 135.844 118.859 135.781 118.234 135.781C117.797 135.781 117.328 135.844 116.828 135.969C116.516 135.844 116.234 135.656 115.984 135.406C115.797 135.219 115.578 135.031 115.328 134.844C115.078 134.656 114.797 134.5 114.484 134.375C114.234 134.25 113.891 134.219 113.453 134.281C113.141 133.406 112.641 132.594 111.953 131.844C111.266 131.094 110.422 130.781 109.422 130.906C109.484 130.656 109.516 130.281 109.516 129.781C109.516 128.906 109.328 128.094 108.953 127.344C108.641 126.594 108.141 126 107.453 125.562C107.141 124.125 106.859 122.531 106.609 120.781C106.359 119.094 105.828 117.625 105.016 116.375C105.016 114.562 104.828 112.812 104.453 111.125C104.078 109.5 103.734 107.812 103.422 106.062C103.672 105.062 103.797 103.938 103.797 102.688C103.797 101.812 103.766 100.969 103.703 100.156C103.641 99.2812 103.609 98.4375 103.609 97.625C103.609 96.75 103.672 95.9062 103.797 95.0938C103.922 94.2188 104.234 93.375 104.734 92.5625C104.359 91.9375 104.109 91.3125 103.984 90.6875C103.859 90 103.797 89.3125 103.797 88.625C103.797 87.5625 103.859 86.5312 103.984 85.5312L104.359 82.5312C104.234 82.4688 104.016 82.4375 103.703 82.4375C103.078 82.4375 102.547 82.5625 102.109 82.8125L100.703 83.4688C100.391 83.4062 100.109 83.375 99.8594 83.375H99.0156C98.0781 83.375 97.1406 83.5312 96.2031 83.8438C95.3281 84.0938 94.5469 84.5625 93.8594 85.25C91.7344 85.25 89.6094 85.4688 87.4844 85.9062C85.3594 86.2812 83.2344 86.75 81.1094 87.3125C79.0469 87.875 76.9844 88.5 74.9219 89.1875C72.8594 89.8125 70.7969 90.375 68.7344 90.875C68.2344 93.3125 67.8594 95.7812 67.6094 98.2812C67.3594 100.719 67.2344 103.219 67.2344 105.781V108.031C67.2344 108.844 67.2969 109.625 67.4219 110.375C67.4844 110.875 67.6406 111.312 67.8906 111.688C68.2031 112.125 68.3594 112.594 68.3594 113.094C68.3594 113.531 68.2656 113.875 68.0781 114.125C68.5156 114.875 69.1719 115.531 70.0469 116.094C70.9844 115.781 71.7969 115.625 72.4844 115.625C73.6094 115.625 74.6719 115.875 75.6719 116.375C76.6719 116.938 77.7344 117.312 78.8594 117.5C78.6094 118.375 78.2344 119.219 77.7344 120.031C77.2344 120.906 76.9219 121.844 76.7969 122.844C76.5469 122.969 76.2969 123.031 76.0469 123.031C75.8594 123.031 75.6719 123.031 75.4844 123.031C75.2969 123.094 75.1406 123.219 75.0156 123.406C74.9531 123.594 74.9844 123.969 75.1094 124.531C74.2344 124.969 73.3594 125.25 72.4844 125.375C71.6094 125.562 70.7031 125.688 69.7656 125.75C68.8906 125.812 67.9844 125.844 67.0469 125.844C66.1719 125.844 65.2656 125.875 64.3281 125.938C64.3281 125.562 64.2344 125.25 64.0469 125C63.9219 124.812 63.7344 124.656 63.4844 124.531C63.2344 124.469 62.9531 124.375 62.6406 124.25C62.3906 124.125 62.1719 123.969 61.9844 123.781C61.4844 123.344 61.0781 122.75 60.7656 122C60.5156 121.312 60.2344 120.562 59.9219 119.75C59.6719 119 59.3906 118.25 59.0781 117.5C58.7656 116.75 58.3906 116.062 57.9531 115.438C57.8281 114.062 57.7344 112.719 57.6719 111.406C57.6094 110.094 57.5781 108.75 57.5781 107.375C57.5781 104.812 57.6719 102.312 57.8594 99.875C58.0469 97.375 58.2031 94.8125 58.3281 92.1875C57.7656 91.625 57.1094 91.375 56.3594 91.4375C55.6719 91.5 54.9844 91.4375 54.2969 91.25C53.5469 90.3125 52.9219 89.2812 52.4219 88.1562C51.9219 86.9688 51.6719 85.75 51.6719 84.5C51.6719 83.875 51.7656 83.2188 51.9531 82.5312C52.5156 82.3438 53.1406 82.1562 53.8281 81.9688C54.5156 81.7812 54.8906 81.2812 54.9531 80.4688C55.3906 80.7188 55.9219 80.8438 56.5469 80.8438C57.1719 80.8438 57.7969 80.75 58.4219 80.5625C59.0469 80.375 59.6719 80.2188 60.2969 80.0938C60.5469 79.0938 60.7344 78.125 60.8594 77.1875C61.0469 76.1875 61.0781 75.1562 60.9531 74.0938C61.8281 72.7812 62.3906 71.3438 62.6406 69.7812C62.9531 68.2188 63.1719 66.7188 63.2969 65.2812V63.9688C63.2969 63.5312 63.3281 63.0938 63.3906 62.6562C63.5156 61.9688 63.7031 61.1875 63.9531 60.3125C64.2031 59.4375 64.4219 58.625 64.6094 57.875C64.9219 56.6875 65.1094 55.5625 65.1719 54.5C65.2969 53.4375 65.3594 52.3438 65.3594 51.2188V50.8438C65.3594 50.5312 65.2344 50.3125 64.9844 50.1875C64.7344 50 64.6094 49.75 64.6094 49.4375L64.7031 49.25C64.9531 47.25 65.2344 45.2812 65.5469 43.3438C65.9219 41.3438 66.4219 39.375 67.0469 37.4375C66.5469 36 66.2969 34.375 66.2969 32.5625C66.2969 30.1875 66.6719 27.9062 67.4219 25.7188C67.0469 24.7188 66.8594 23.75 66.8594 22.8125C66.8594 22.0625 66.8906 21.3125 66.9531 20.5625C67.0781 19.8125 67.1094 19.0625 67.0469 18.3125C67.6719 18 68.1719 17.5625 68.5469 17C68.9844 16.4375 69.4844 15.9688 70.0469 15.5938C71.9219 15.5312 73.4844 16.1562 74.7344 17.4688C76.0469 18.7812 76.7031 20.375 76.7031 22.25C76.7031 23.6875 76.2969 25.0625 75.4844 26.375C75.7344 27.5625 75.8594 28.9375 75.8594 30.5C75.8594 32.8125 75.7031 35.125 75.3906 37.4375C75.0781 39.75 74.9844 42.0938 75.1094 44.4688C74.7344 45.3438 74.5469 46.4062 74.5469 47.6562C74.6094 48.9062 74.5781 49.9688 74.4531 50.8438C74.3281 51.7188 74.1406 52.625 73.8906 53.5625C73.6406 54.4375 73.4844 55.3125 73.4219 56.1875C73.3594 57.625 73.2969 59.0625 73.2344 60.5C73.2344 61.9375 73.0781 63.3125 72.7656 64.625C72.6406 65.125 72.4531 65.5625 72.2031 65.9375C72.0156 66.25 71.8594 66.625 71.7344 67.0625C71.4844 68.375 71.3906 69.7188 71.4531 71.0938C71.5781 72.4062 71.5781 73.75 71.4531 75.125C71.3906 75.5625 71.2656 76 71.0781 76.4375C70.9531 76.875 70.8906 77.3438 70.8906 77.8438C70.8906 78.0938 70.9531 78.4062 71.0781 78.7812C76.7656 78.2812 82.4219 77.4375 88.0469 76.25C93.6719 75.0625 99.3281 74.0312 105.016 73.1562C105.453 72.3438 105.672 71.5 105.672 70.625C105.672 70.125 105.578 69.625 105.391 69.125C106.016 67.0625 106.484 65 106.797 62.9375C107.172 60.8125 107.484 58.7188 107.734 56.6562C107.984 54.5938 108.203 52.5312 108.391 50.4688C108.578 48.3438 108.828 46.25 109.141 44.1875L109.703 41C109.891 39.9375 110.141 38.9062 110.453 37.9062C110.578 37.5312 110.703 37.1562 110.828 36.7812C111.016 36.4062 111.109 36.0625 111.109 35.75C111.109 35.4375 110.922 35.2188 110.547 35.0938C110.234 34.9688 110.078 34.8125 110.078 34.625C110.078 34.5 110.109 34.4375 110.172 34.4375C110.297 34.375 110.391 34.375 110.453 34.4375C110.766 33.875 110.953 33.2812 111.016 32.6562C111.078 32.0312 111.109 31.4062 111.109 30.7812C111.172 30.1562 111.266 29.5625 111.391 29C111.516 28.375 111.766 27.8125 112.141 27.3125C112.078 26.875 111.953 26.4688 111.766 26.0938C111.578 25.7188 111.484 25.2812 111.484 24.7812C111.422 24.7188 111.422 24.6562 111.484 24.5938C111.609 24.0312 111.672 23.5625 111.672 23.1875C111.734 22.75 111.766 22.25 111.766 21.6875C111.766 20.9375 112.109 20.3438 112.797 19.9062C112.484 18.8438 112.266 17.6875 112.141 16.4375C112.016 15.1875 111.953 13.9688 111.953 12.7812C111.953 11.1562 112.328 9.8125 113.078 8.75C113.891 7.625 115.203 7.0625 117.016 7.0625C117.953 7.0625 118.828 7.25 119.641 7.625C120.516 8 121.234 8.53125 121.797 9.21875C122.109 10.6562 122.266 12 122.266 13.25C122.266 14.125 122.203 14.9688 122.078 15.7812C122.016 16.5312 121.984 17.3438 121.984 18.2188C121.984 18.9062 122.047 19.5625 122.172 20.1875C122.297 20.75 122.422 21.3438 122.547 21.9688C121.984 22.8438 121.578 23.8125 121.328 24.875C121.078 25.9375 120.891 27.0312 120.766 28.1562C120.703 29.2812 120.641 30.4375 120.578 31.625C120.578 32.75 120.547 33.7812 120.484 34.7188C120.297 36.7812 119.984 38.8125 119.547 40.8125C119.172 42.8125 118.734 44.8125 118.234 46.8125C118.422 47.5 118.516 48.125 118.516 48.6875C118.516 49.8125 118.359 50.9375 118.047 52.0625C117.734 53.125 117.641 54.1875 117.766 55.25C117.328 56.375 117.047 57.5312 116.922 58.7188C116.797 59.8438 116.703 61.0312 116.641 62.2812L116.453 65.9375C116.391 67.125 116.172 68.2812 115.797 69.4062C115.922 69.7188 116.141 69.9062 116.453 69.9688C116.828 69.9688 116.953 70.2188 116.828 70.7188C118.266 70.2812 119.797 70.0938 121.422 70.1562C123.047 70.1562 124.578 70.1562 126.016 70.1562C126.953 70.1562 127.891 70.1562 128.828 70.1562C129.766 70.0938 130.703 69.9688 131.641 69.7812C132.578 69.5312 133.516 69.25 134.453 68.9375C135.453 68.5625 136.422 68.375 137.359 68.375C138.672 68.375 139.672 68.8438 140.359 69.7812C140.484 70.4688 140.578 71.1562 140.641 71.8438C140.703 72.5312 140.734 73.2188 140.734 73.9062Z" fill="#E777C7"/>
<path d="M82.2528 47.992C82.2528 20.6512 75.1872 6.98081 61.056 6.98081C51.5328 6.98081 43.6224 10.744 37.3248 18.2704C34.56 21.496 31.872 23.1088 29.2608 23.1088C27.7248 23.1088 27.3408 22.4176 28.1088 21.0352C37.4784 7.5184 49.6896 0.760003 64.7424 0.760003C79.9488 0.760003 89.9328 9.1312 94.6944 25.8736C96.5376 32.4784 97.4592 40.4656 97.4592 49.8352C97.4592 59.2048 95.3856 70.4944 91.2384 83.704C84.48 105.669 74.4192 121.72 61.056 131.858C53.5296 137.694 45.696 140.613 37.5552 140.613C29.568 140.613 22.7328 138.693 17.0496 134.853C11.52 130.859 7.6032 125.714 5.2992 119.416C2.3808 111.275 0.9216 103.365 0.9216 95.6848C0.9216 87.8512 1.8432 80.3248 3.6864 73.1056C5.5296 65.8864 8.064 58.8208 11.2896 51.9088C14.5152 44.8432 18.7392 38.6992 23.9616 33.4768C29.184 28.2544 34.7904 24.7984 40.7808 23.1088C41.7024 22.8016 42.3936 23.032 42.8544 23.8C43.4688 24.568 43.6992 25.4896 43.5456 26.5648C43.392 27.64 43.008 28.2544 42.3936 28.408C37.4784 29.7904 32.9472 34.3984 28.8 42.232C20.6592 56.9776 16.5888 76.408 16.5888 100.523C16.5888 110.2 18.3552 118.494 21.888 125.406C25.4208 132.165 30.4896 135.544 37.0944 135.544C50.1504 135.544 61.2096 124.869 70.272 103.518C78.2592 84.9328 82.2528 66.424 82.2528 47.992Z" fill="#32D1F9"/>
</svg>
